<svg xmlns="http://www.w3.org/2000/svg" viewBox="0 0 24 24" width="{{ .width }}" height="{{ .height }}" fill="currentColor"><path d="M19,18h-3.158H12c-0.551,0-1-0.449-1-1s0.449-1,1-1h5.828L21,12.842V10l-4,4h-5c-1.657,0-3,1.343-3,3s1.343,3,3,3h9v-2H19z"/><path d="M19.172 6l-6 6H16l6-6-4-4L2 18v4h4l2.012-2.012c-.425-.566-.742-1.216-.896-1.932L5.172 20H4v-1.172l3.221-3.221c.476-1.634 1.752-2.91 3.386-3.386L18 4.828 19.172 6zM4.121 10c-.058 0-.087-.035-.094-.042-.011-.032.001-.157.094-.25l3.122-3.122c.24-.24.531-.412.848-.505L11.654 6l2-2H8.657C7.596 4 6.579 4.421 5.828 5.172L2.707 8.293c-.785.785-.935 2.064-.232 2.923C2.902 11.739 3.512 12 4.121 12c.543 0 1.086-.207 1.5-.621L6 11v-1C6 10 4.172 10 4.121 10z"/><path d="M7,17c0-2.761,2.239-5,5-5c0.819,0,3,0,3,0l5.414-5.586l-2.828-2.828l-15,15L3,21l2.414,0.414l2.151-2.151C7.216,18.581,7,17.819,7,17z" opacity=".3"/></svg>