<svg fill="#000000" xmlns="http://www.w3.org/2000/svg" viewBox="0 0 24 24" width="{{ .width }}" height="{{ .height }}"><path fill="currentColor" d="M 9 1 L 9 3 L 15 3 L 15 1 L 9 1 z M 18.958984 2.7929688 L 17.666016 4.3183594 L 20.615234 6.8183594 L 21.908203 5.2929688 L 18.958984 2.7929688 z M 12 4 C 7.0225467 4 3 8.0225467 3 13 C 3 17.977453 7.0225467 22 12 22 C 16.977453 22 21 17.977453 21 13 C 21 8.0225467 16.977453 4 12 4 z M 12 6 C 15.910547 6 19 9.0894533 19 13 C 19 16.910547 15.910547 20 12 20 C 8.0894533 20 5 16.910547 5 13 C 5 9.0894533 8.0894533 6 12 6 z M 11 8 L 11 14 L 13 14 L 13 8 L 11 8 z"/></svg>